<svg width="127" height="28" viewBox="0 0 127 28" fill="none" xmlns="http://www.w3.org/2000/svg">
<path d="M13.5787 0C6.0775 0 0 6.08742 0 13.6009V27.2018H13.5787C21.08 27.2018 27.1575 21.1144 27.1575 13.6009V0H13.5787ZM2.71469 21.7636V13.3455C2.71469 7.47624 7.46406 2.71912 13.3237 2.71912H21.7281H22.525L19.8103 5.43824H10.8641V8.15735H17.0903L11.6609 13.6009H5.42937V16.32H8.94094L2.71469 22.5618V21.7636ZM24.4428 5.43824V13.8563C24.4428 19.7256 19.6934 24.4827 13.8337 24.4827H5.42937H4.6325L10.8587 18.2463V21.7636H13.5734V15.5272L19.0028 10.0889V16.3253H21.7281V7.3645L24.4428 4.64538V5.43824Z" fill="#080808"/>
<path d="M36.1262 21.6006V5.08859H43.7822C44.8062 5.08859 45.6382 5.21659 46.2782 5.47258C46.9342 5.72859 47.4382 6.09659 47.7902 6.57658C48.1422 7.04059 48.3822 7.60859 48.5102 8.28059C48.6542 8.95259 48.7262 9.71259 48.7262 10.5606C48.7262 11.3446 48.6622 12.0726 48.5342 12.7446C48.4222 13.4006 48.1902 13.9766 47.8382 14.4726C47.4862 14.9686 46.9742 15.3526 46.3022 15.6246C45.6462 15.8966 44.7742 16.0326 43.6862 16.0326H39.5342V21.6006H36.1262ZM39.5342 13.2486H42.3422C43.0302 13.2486 43.5742 13.2166 43.9742 13.1526C44.3742 13.0726 44.6702 12.9366 44.8622 12.7446C45.0542 12.5526 45.1742 12.2806 45.2222 11.9286C45.2862 11.5766 45.3182 11.1206 45.3182 10.5606C45.3182 10.0006 45.2862 9.54459 45.2222 9.19259C45.1742 8.84059 45.0542 8.56859 44.8622 8.37659C44.6862 8.16859 44.4062 8.03259 44.0222 7.96859C43.6382 7.88859 43.1102 7.84859 42.4382 7.84859H39.5342V13.2486ZM51.1513 21.6006V9.36058H54.1273L54.2233 11.4726H54.4153C54.6233 10.8646 54.9033 10.3926 55.2553 10.0566C55.6233 9.72059 56.0633 9.48858 56.5753 9.36058C57.0873 9.23259 57.6713 9.16859 58.3273 9.16859V12.1926C57.2873 12.1926 56.4713 12.3366 55.8793 12.6246C55.3033 12.9126 54.8953 13.3846 54.6553 14.0406C54.4313 14.6966 54.3193 15.5846 54.3193 16.7046V21.6006H51.1513ZM65.7008 21.7926C64.6128 21.7926 63.7088 21.7206 62.9888 21.5766C62.2688 21.4326 61.6928 21.2086 61.2608 20.9046C60.8448 20.5846 60.5248 20.1846 60.3008 19.7046C60.0928 19.2086 59.9568 18.6166 59.8928 17.9286C59.8448 17.2246 59.8208 16.4166 59.8208 15.5046C59.8208 14.4166 59.8768 13.4726 59.9888 12.6726C60.1008 11.8726 60.3328 11.2166 60.6848 10.7046C61.0528 10.1766 61.6128 9.79259 62.3648 9.55259C63.1328 9.29659 64.1488 9.16859 65.4128 9.16859C66.4368 9.16859 67.2688 9.24859 67.9088 9.40859C68.5488 9.56859 69.0528 9.80859 69.4208 10.1286C69.8048 10.4486 70.0768 10.8646 70.2368 11.3766C70.4128 11.8726 70.5248 12.4646 70.5728 13.1526C70.6208 13.8406 70.6448 14.6246 70.6448 15.5046V16.4406H62.9888C62.9888 17.0486 63.0128 17.5446 63.0608 17.9286C63.1248 18.2966 63.2608 18.5766 63.4688 18.7686C63.6928 18.9606 64.0368 19.0886 64.5008 19.1526C64.9808 19.2166 65.6288 19.2486 66.4448 19.2486C66.7808 19.2486 67.1568 19.2406 67.5728 19.2246C68.0048 19.2086 68.4448 19.1846 68.8928 19.1526C69.3568 19.1206 69.7808 19.0886 70.1648 19.0566V21.4086C69.8128 21.4886 69.3808 21.5526 68.8688 21.6006C68.3728 21.6646 67.8448 21.7126 67.2848 21.7446C66.7408 21.7766 66.2128 21.7926 65.7008 21.7926ZM67.6208 14.8566V14.4726C67.6208 13.8486 67.5808 13.3526 67.5008 12.9846C67.4368 12.6006 67.3168 12.3126 67.1408 12.1206C66.9808 11.9286 66.7568 11.8086 66.4688 11.7606C66.1808 11.6966 65.8128 11.6646 65.3648 11.6646C64.8368 11.6646 64.4208 11.7046 64.1168 11.7846C63.8128 11.8486 63.5808 11.9846 63.4208 12.1926C63.2608 12.3846 63.1488 12.6726 63.0848 13.0566C63.0208 13.4246 62.9888 13.8966 62.9888 14.4726H68.0528L67.6208 14.8566ZM77.8502 21.7926C77.3542 21.7926 76.8182 21.7766 76.2422 21.7446C75.6822 21.7126 75.1302 21.6726 74.5862 21.6246C74.0422 21.5766 73.5462 21.5206 73.0982 21.4566V19.0566C73.3382 19.0726 73.6182 19.0966 73.9382 19.1286C74.2742 19.1446 74.6342 19.1606 75.0182 19.1766C75.4022 19.1926 75.7782 19.2086 76.1462 19.2246C76.5142 19.2406 76.8582 19.2486 77.1782 19.2486C77.9142 19.2486 78.4422 19.2166 78.7622 19.1526C79.0982 19.0726 79.3142 18.9446 79.4102 18.7686C79.5062 18.5766 79.5542 18.3286 79.5542 18.0246C79.5542 17.7046 79.5222 17.4726 79.4582 17.3286C79.3942 17.1686 79.2742 17.0646 79.0982 17.0166C78.9222 16.9686 78.6342 16.9206 78.2342 16.8726L75.3782 16.5126C74.6262 16.4166 74.0582 16.2166 73.6742 15.9126C73.3062 15.6086 73.0502 15.2006 72.9062 14.6886C72.7782 14.1766 72.7142 13.5686 72.7142 12.8646C72.7142 12.0326 72.8342 11.3766 73.0742 10.8966C73.3302 10.4006 73.6742 10.0326 74.1062 9.79259C74.5542 9.53659 75.0822 9.36859 75.6902 9.28859C76.3142 9.20859 76.9862 9.16859 77.7062 9.16859C78.1862 9.16859 78.6822 9.18459 79.1942 9.21659C79.7062 9.24859 80.1942 9.29659 80.6582 9.36058C81.1382 9.40859 81.5382 9.47259 81.8582 9.55259V11.9286C81.4902 11.8806 81.0822 11.8486 80.6342 11.8326C80.1862 11.8006 79.7462 11.7766 79.3142 11.7606C78.8822 11.7286 78.4982 11.7126 78.1622 11.7126C77.5542 11.7126 77.0662 11.7366 76.6982 11.7846C76.3462 11.8166 76.0982 11.9126 75.9542 12.0726C75.8102 12.2326 75.7382 12.4966 75.7382 12.8646C75.7382 13.1526 75.7622 13.3766 75.8102 13.5366C75.8582 13.6806 75.9622 13.7846 76.1222 13.8486C76.2822 13.8966 76.5382 13.9446 76.8902 13.9926L79.9862 14.3766C80.5462 14.4406 81.0182 14.5686 81.4022 14.7606C81.7862 14.9526 82.0662 15.2886 82.2422 15.7686C82.4342 16.2486 82.5302 16.9766 82.5302 17.9526C82.5302 18.8006 82.4262 19.4806 82.2182 19.9926C82.0102 20.4886 81.6902 20.8726 81.2582 21.1446C80.8422 21.4006 80.3462 21.5686 79.7702 21.6486C79.2102 21.7446 78.5702 21.7926 77.8502 21.7926ZM86.1236 21.6006V11.9286H83.7716V9.36058H86.1236V5.80858H89.3156V9.36058H92.0996V11.9286H89.3156V21.6006H86.1236ZM94.0251 6.60059V3.76859H97.3131V6.60059H94.0251ZM94.0731 21.6006V9.36058H97.2651V21.6006H94.0731ZM105.137 26.5446C104.625 26.5446 104.097 26.5286 103.553 26.4966C103.025 26.4806 102.529 26.4486 102.065 26.4006C101.601 26.3686 101.217 26.3206 100.913 26.2566V23.9046C101.233 23.9206 101.593 23.9366 101.993 23.9526C102.393 23.9686 102.801 23.9766 103.217 23.9766C103.633 23.9766 104.017 23.9766 104.369 23.9766C105.201 23.9766 105.849 23.9366 106.313 23.8566C106.777 23.7766 107.121 23.6246 107.345 23.4006C107.585 23.1926 107.737 22.8726 107.801 22.4406C107.865 22.0246 107.897 21.4726 107.897 20.7846V20.0646H107.729C107.505 20.4806 107.209 20.8086 106.841 21.0486C106.489 21.2726 106.089 21.4246 105.641 21.5046C105.209 21.5846 104.729 21.6246 104.201 21.6246C103.433 21.6246 102.777 21.5286 102.233 21.3366C101.705 21.1446 101.273 20.8166 100.937 20.3526C100.601 19.8886 100.361 19.2566 100.217 18.4566C100.073 17.6566 100.001 16.6566 100.001 15.4566C100.001 14.2406 100.073 13.2326 100.217 12.4326C100.377 11.6166 100.625 10.9766 100.961 10.5126C101.297 10.0326 101.729 9.68859 102.257 9.48059C102.785 9.27259 103.433 9.16859 104.201 9.16859C104.665 9.16859 105.129 9.21659 105.593 9.31259C106.057 9.39259 106.481 9.56059 106.865 9.81659C107.265 10.0566 107.585 10.4166 107.825 10.8966H107.993L108.089 9.36058H111.065V20.1606C111.065 21.2646 111.009 22.2166 110.897 23.0166C110.785 23.8326 110.537 24.4966 110.153 25.0086C109.769 25.5366 109.177 25.9206 108.377 26.1606C107.593 26.4166 106.513 26.5446 105.137 26.5446ZM105.545 18.9366C106.073 18.9366 106.489 18.8726 106.793 18.7446C107.113 18.6166 107.353 18.4166 107.513 18.1446C107.673 17.8566 107.777 17.4886 107.825 17.0406C107.873 16.5926 107.897 16.0566 107.897 15.4326C107.897 14.8246 107.873 14.2966 107.825 13.8486C107.777 13.4006 107.673 13.0326 107.513 12.7446C107.353 12.4406 107.113 12.2246 106.793 12.0966C106.489 11.9686 106.073 11.9046 105.545 11.9046C105.017 11.9046 104.593 11.9446 104.273 12.0246C103.953 12.0886 103.713 12.2406 103.553 12.4806C103.409 12.7046 103.313 13.0566 103.265 13.5366C103.217 14.0006 103.193 14.6326 103.193 15.4326C103.193 16.2326 103.217 16.8646 103.265 17.3286C103.313 17.7766 103.409 18.1206 103.553 18.3606C103.713 18.5846 103.953 18.7366 104.273 18.8166C104.593 18.8966 105.017 18.9366 105.545 18.9366ZM119.67 21.7926C118.582 21.7926 117.678 21.7206 116.958 21.5766C116.238 21.4326 115.662 21.2086 115.23 20.9046C114.814 20.5846 114.494 20.1846 114.27 19.7046C114.062 19.2086 113.926 18.6166 113.862 17.9286C113.814 17.2246 113.79 16.4166 113.79 15.5046C113.79 14.4166 113.846 13.4726 113.958 12.6726C114.07 11.8726 114.302 11.2166 114.654 10.7046C115.022 10.1766 115.582 9.79259 116.334 9.55259C117.102 9.29659 118.118 9.16859 119.382 9.16859C120.406 9.16859 121.238 9.24859 121.878 9.40859C122.518 9.56859 123.022 9.80859 123.39 10.1286C123.774 10.4486 124.046 10.8646 124.206 11.3766C124.382 11.8726 124.494 12.4646 124.542 13.1526C124.59 13.8406 124.614 14.6246 124.614 15.5046V16.4406H116.958C116.958 17.0486 116.982 17.5446 117.03 17.9286C117.094 18.2966 117.23 18.5766 117.438 18.7686C117.662 18.9606 118.006 19.0886 118.47 19.1526C118.95 19.2166 119.598 19.2486 120.414 19.2486C120.75 19.2486 121.126 19.2406 121.542 19.2246C121.974 19.2086 122.414 19.1846 122.862 19.1526C123.326 19.1206 123.75 19.0886 124.134 19.0566V21.4086C123.782 21.4886 123.35 21.5526 122.838 21.6006C122.342 21.6646 121.814 21.7126 121.254 21.7446C120.71 21.7766 120.182 21.7926 119.67 21.7926ZM121.59 14.8566V14.4726C121.59 13.8486 121.55 13.3526 121.47 12.9846C121.406 12.6006 121.286 12.3126 121.11 12.1206C120.95 11.9286 120.726 11.8086 120.438 11.7606C120.15 11.6966 119.782 11.6646 119.334 11.6646C118.806 11.6646 118.39 11.7046 118.086 11.7846C117.782 11.8486 117.55 11.9846 117.39 12.1926C117.23 12.3846 117.118 12.6726 117.054 13.0566C116.99 13.4246 116.958 13.8966 116.958 14.4726H122.022L121.59 14.8566Z" fill="#080808"/>
</svg>
