<svg width="127" height="28" viewBox="0 0 127 28" fill="none" xmlns="http://www.w3.org/2000/svg">
<path d="M13.5787 0.399414C6.0775 0.399414 0 6.48683 0 14.0003V27.6012H13.5787C21.08 27.6012 27.1575 21.5138 27.1575 14.0003V0.399414H13.5787ZM2.71469 22.163V13.7449C2.71469 7.87566 7.46406 3.11853 13.3237 3.11853H21.7281H22.525L19.8103 5.83765H10.8641V8.55677H17.0903L11.6609 14.0003H5.42937V16.7194H8.94094L2.71469 22.9612V22.163ZM24.4428 5.83765V14.2557C24.4428 20.125 19.6934 24.8821 13.8337 24.8821H5.42937H4.6325L10.8587 18.6457V22.163H13.5734V15.9266L19.0028 10.4884V16.7248H21.7281V7.76391L24.4428 5.0448V5.83765Z" fill="#C3F53C"/>
<path d="M36.1255 22V5.488H43.7815C44.8055 5.488 45.6375 5.616 46.2775 5.872C46.9335 6.128 47.4375 6.496 47.7895 6.976C48.1415 7.44 48.3815 8.008 48.5095 8.68C48.6535 9.352 48.7255 10.112 48.7255 10.96C48.7255 11.744 48.6615 12.472 48.5335 13.144C48.4215 13.8 48.1895 14.376 47.8375 14.872C47.4855 15.368 46.9735 15.752 46.3015 16.024C45.6455 16.296 44.7735 16.432 43.6855 16.432H39.5335V22H36.1255ZM39.5335 13.648H42.3415C43.0295 13.648 43.5735 13.616 43.9735 13.552C44.3735 13.472 44.6695 13.336 44.8615 13.144C45.0535 12.952 45.1735 12.68 45.2215 12.328C45.2855 11.976 45.3175 11.52 45.3175 10.96C45.3175 10.4 45.2855 9.944 45.2215 9.592C45.1735 9.24 45.0535 8.968 44.8615 8.776C44.6855 8.568 44.4055 8.432 44.0215 8.368C43.6375 8.288 43.1095 8.248 42.4375 8.248H39.5335V13.648ZM51.1505 22V9.76H54.1265L54.2225 11.872H54.4145C54.6225 11.264 54.9025 10.792 55.2545 10.456C55.6225 10.12 56.0625 9.888 56.5745 9.76C57.0865 9.632 57.6705 9.568 58.3265 9.568V12.592C57.2865 12.592 56.4705 12.736 55.8785 13.024C55.3025 13.312 54.8945 13.784 54.6545 14.44C54.4305 15.096 54.3185 15.984 54.3185 17.104V22H51.1505ZM65.7001 22.192C64.6121 22.192 63.7081 22.12 62.9881 21.976C62.2681 21.832 61.6921 21.608 61.2601 21.304C60.8441 20.984 60.5241 20.584 60.3001 20.104C60.0921 19.608 59.9561 19.016 59.8921 18.328C59.8441 17.624 59.8201 16.816 59.8201 15.904C59.8201 14.816 59.8761 13.872 59.9881 13.072C60.1001 12.272 60.3321 11.616 60.6841 11.104C61.0521 10.576 61.6121 10.192 62.3641 9.952C63.1321 9.696 64.1481 9.568 65.4121 9.568C66.4361 9.568 67.2681 9.648 67.9081 9.808C68.5481 9.968 69.0521 10.208 69.4201 10.528C69.8041 10.848 70.0761 11.264 70.2361 11.776C70.4121 12.272 70.5241 12.864 70.5721 13.552C70.6201 14.24 70.6441 15.024 70.6441 15.904V16.84H62.9881C62.9881 17.448 63.0121 17.944 63.0601 18.328C63.1241 18.696 63.2601 18.976 63.4681 19.168C63.6921 19.36 64.0361 19.488 64.5001 19.552C64.9801 19.616 65.6281 19.648 66.4441 19.648C66.7801 19.648 67.1561 19.64 67.5721 19.624C68.0041 19.608 68.4441 19.584 68.8921 19.552C69.3561 19.52 69.7801 19.488 70.1641 19.456V21.808C69.8121 21.888 69.3801 21.952 68.8681 22C68.3721 22.064 67.8441 22.112 67.2841 22.144C66.7401 22.176 66.2121 22.192 65.7001 22.192ZM67.6201 15.256V14.872C67.6201 14.248 67.5801 13.752 67.5001 13.384C67.4361 13 67.3161 12.712 67.1401 12.52C66.9801 12.328 66.7561 12.208 66.4681 12.16C66.1801 12.096 65.8121 12.064 65.3641 12.064C64.8361 12.064 64.4201 12.104 64.1161 12.184C63.8121 12.248 63.5801 12.384 63.4201 12.592C63.2601 12.784 63.1481 13.072 63.0841 13.456C63.0201 13.824 62.9881 14.296 62.9881 14.872H68.0521L67.6201 15.256ZM77.8495 22.192C77.3535 22.192 76.8175 22.176 76.2415 22.144C75.6815 22.112 75.1295 22.072 74.5855 22.024C74.0415 21.976 73.5455 21.92 73.0975 21.856V19.456C73.3375 19.472 73.6175 19.496 73.9375 19.528C74.2735 19.544 74.6335 19.56 75.0175 19.576C75.4015 19.592 75.7775 19.608 76.1455 19.624C76.5135 19.64 76.8575 19.648 77.1775 19.648C77.9135 19.648 78.4415 19.616 78.7615 19.552C79.0975 19.472 79.3135 19.344 79.4095 19.168C79.5055 18.976 79.5535 18.728 79.5535 18.424C79.5535 18.104 79.5215 17.872 79.4575 17.728C79.3935 17.568 79.2735 17.464 79.0975 17.416C78.9215 17.368 78.6335 17.32 78.2335 17.272L75.3775 16.912C74.6255 16.816 74.0575 16.616 73.6735 16.312C73.3055 16.008 73.0495 15.6 72.9055 15.088C72.7775 14.576 72.7135 13.968 72.7135 13.264C72.7135 12.432 72.8335 11.776 73.0735 11.296C73.3295 10.8 73.6735 10.432 74.1055 10.192C74.5535 9.936 75.0815 9.768 75.6895 9.688C76.3135 9.608 76.9855 9.568 77.7055 9.568C78.1855 9.568 78.6815 9.584 79.1935 9.616C79.7055 9.648 80.1935 9.696 80.6575 9.76C81.1375 9.808 81.5375 9.872 81.8575 9.952V12.328C81.4895 12.28 81.0815 12.248 80.6335 12.232C80.1855 12.2 79.7455 12.176 79.3135 12.16C78.8815 12.128 78.4975 12.112 78.1615 12.112C77.5535 12.112 77.0655 12.136 76.6975 12.184C76.3455 12.216 76.0975 12.312 75.9535 12.472C75.8095 12.632 75.7375 12.896 75.7375 13.264C75.7375 13.552 75.7615 13.776 75.8095 13.936C75.8575 14.08 75.9615 14.184 76.1215 14.248C76.2815 14.296 76.5375 14.344 76.8895 14.392L79.9855 14.776C80.5455 14.84 81.0175 14.968 81.4015 15.16C81.7855 15.352 82.0655 15.688 82.2415 16.168C82.4335 16.648 82.5295 17.376 82.5295 18.352C82.5295 19.2 82.4255 19.88 82.2175 20.392C82.0095 20.888 81.6895 21.272 81.2575 21.544C80.8415 21.8 80.3455 21.968 79.7695 22.048C79.2095 22.144 78.5695 22.192 77.8495 22.192ZM86.1228 22V12.328H83.7708V9.76H86.1228V6.208H89.3148V9.76H92.0988V12.328H89.3148V22H86.1228ZM94.0244 7V4.168H97.3124V7H94.0244ZM94.0724 22V9.76H97.2644V22H94.0724ZM105.136 26.944C104.624 26.944 104.096 26.928 103.552 26.896C103.024 26.88 102.528 26.848 102.064 26.8C101.6 26.768 101.216 26.72 100.912 26.656V24.304C101.232 24.32 101.592 24.336 101.992 24.352C102.392 24.368 102.8 24.376 103.216 24.376C103.632 24.376 104.016 24.376 104.368 24.376C105.2 24.376 105.848 24.336 106.312 24.256C106.776 24.176 107.12 24.024 107.344 23.8C107.584 23.592 107.736 23.272 107.8 22.84C107.864 22.424 107.896 21.872 107.896 21.184V20.464H107.728C107.504 20.88 107.208 21.208 106.84 21.448C106.488 21.672 106.088 21.824 105.64 21.904C105.208 21.984 104.728 22.024 104.2 22.024C103.432 22.024 102.776 21.928 102.232 21.736C101.704 21.544 101.272 21.216 100.936 20.752C100.6 20.288 100.36 19.656 100.216 18.856C100.072 18.056 99.9998 17.056 99.9998 15.856C99.9998 14.64 100.072 13.632 100.216 12.832C100.376 12.016 100.624 11.376 100.96 10.912C101.296 10.432 101.728 10.088 102.256 9.88C102.784 9.672 103.432 9.568 104.2 9.568C104.664 9.568 105.128 9.616 105.592 9.712C106.056 9.792 106.48 9.96 106.864 10.216C107.264 10.456 107.584 10.816 107.824 11.296H107.992L108.088 9.76H111.064V20.56C111.064 21.664 111.008 22.616 110.896 23.416C110.784 24.232 110.536 24.896 110.152 25.408C109.768 25.936 109.176 26.32 108.376 26.56C107.592 26.816 106.512 26.944 105.136 26.944ZM105.544 19.336C106.072 19.336 106.488 19.272 106.792 19.144C107.112 19.016 107.352 18.816 107.512 18.544C107.672 18.256 107.776 17.888 107.824 17.44C107.872 16.992 107.896 16.456 107.896 15.832C107.896 15.224 107.872 14.696 107.824 14.248C107.776 13.8 107.672 13.432 107.512 13.144C107.352 12.84 107.112 12.624 106.792 12.496C106.488 12.368 106.072 12.304 105.544 12.304C105.016 12.304 104.592 12.344 104.272 12.424C103.952 12.488 103.712 12.64 103.552 12.88C103.408 13.104 103.312 13.456 103.264 13.936C103.216 14.4 103.192 15.032 103.192 15.832C103.192 16.632 103.216 17.264 103.264 17.728C103.312 18.176 103.408 18.52 103.552 18.76C103.712 18.984 103.952 19.136 104.272 19.216C104.592 19.296 105.016 19.336 105.544 19.336ZM119.669 22.192C118.581 22.192 117.677 22.12 116.957 21.976C116.237 21.832 115.661 21.608 115.229 21.304C114.813 20.984 114.493 20.584 114.269 20.104C114.061 19.608 113.925 19.016 113.861 18.328C113.813 17.624 113.789 16.816 113.789 15.904C113.789 14.816 113.845 13.872 113.957 13.072C114.069 12.272 114.301 11.616 114.653 11.104C115.021 10.576 115.581 10.192 116.333 9.952C117.101 9.696 118.117 9.568 119.381 9.568C120.405 9.568 121.237 9.648 121.877 9.808C122.517 9.968 123.021 10.208 123.389 10.528C123.773 10.848 124.045 11.264 124.205 11.776C124.381 12.272 124.493 12.864 124.541 13.552C124.589 14.24 124.613 15.024 124.613 15.904V16.84H116.957C116.957 17.448 116.981 17.944 117.029 18.328C117.093 18.696 117.229 18.976 117.437 19.168C117.661 19.36 118.005 19.488 118.469 19.552C118.949 19.616 119.597 19.648 120.413 19.648C120.749 19.648 121.125 19.64 121.541 19.624C121.973 19.608 122.413 19.584 122.861 19.552C123.325 19.52 123.749 19.488 124.133 19.456V21.808C123.781 21.888 123.349 21.952 122.837 22C122.341 22.064 121.813 22.112 121.253 22.144C120.709 22.176 120.181 22.192 119.669 22.192ZM121.589 15.256V14.872C121.589 14.248 121.549 13.752 121.469 13.384C121.405 13 121.285 12.712 121.109 12.52C120.949 12.328 120.725 12.208 120.437 12.16C120.149 12.096 119.781 12.064 119.333 12.064C118.805 12.064 118.389 12.104 118.085 12.184C117.781 12.248 117.549 12.384 117.389 12.592C117.229 12.784 117.117 13.072 117.053 13.456C116.989 13.824 116.957 14.296 116.957 14.872H122.021L121.589 15.256Z" fill="#C3F53C"/>
</svg>
