<svg width="80" height="80" viewBox="0 0 80 80" fill="none" xmlns="http://www.w3.org/2000/svg">
<g clip-path="url(#clip0_970_3782)">
<path d="M40 79.5C61.8152 79.5 79.5 61.8152 79.5 40C79.5 18.1848 61.8152 0.5 40 0.5C18.1848 0.5 0.5 18.1848 0.5 40C0.5 61.8152 18.1848 79.5 40 79.5Z" fill="#C3F53C"/>
<path d="M80 39.8008V40.0008C80 62.1008 62.1 80.0008 40 80.0008C22.8 80.0008 8.1 69.1008 2.5 53.8008C11.5 60.0008 22.4 63.6008 34.2 63.6008C53.1 63.6008 69.9 54.2008 80 39.8008Z" fill="#63DE1F"/>
<path d="M40 79.5C61.8152 79.5 79.5 61.8152 79.5 40C79.5 18.1848 61.8152 0.5 40 0.5C18.1848 0.5 0.5 18.1848 0.5 40C0.5 61.8152 18.1848 79.5 40 79.5Z" stroke="#080808" stroke-miterlimit="10"/>
<path d="M45.6 26.4V24M51.9 28.1L53.6 26.4M53.6 34.4H56M55.9 41.6C55.1 49.7 48.3 56 40 56C31.2 56 24 48.8 24 40C24 31.7 30.3 24.9 38.4 24.1M40 33.6H46.4V40M45.8 33.6C42 38.9 35.8 42.4 28.8 42.4C27.2 42.4 25.6 42.2 24.1 41.9" stroke="#080808" stroke-width="2" stroke-linecap="round" stroke-linejoin="round"/>
</g>
<defs>
<clipPath id="clip0_970_3782">
<rect width="80" height="80" fill="white"/>
</clipPath>
</defs>
</svg>
