<svg width="80" height="80" viewBox="0 0 80 80" fill="none" xmlns="http://www.w3.org/2000/svg">
<g clip-path="url(#clip0_970_3772)">
<path d="M40 79.5C61.8152 79.5 79.5 61.8152 79.5 40C79.5 18.1848 61.8152 0.5 40 0.5C18.1848 0.5 0.5 18.1848 0.5 40C0.5 61.8152 18.1848 79.5 40 79.5Z" fill="#C3F53C"/>
<path d="M80 39.8008V40.0008C80 62.1008 62.1 80.0008 40 80.0008C22.8 80.0008 8.1 69.1008 2.5 53.8008C11.5 60.0008 22.4 63.6008 34.2 63.6008C53.1 63.6008 69.9 54.2008 80 39.8008Z" fill="#63DE1F"/>
<path d="M40 79.5C61.8152 79.5 79.5 61.8152 79.5 40C79.5 18.1848 61.8152 0.5 40 0.5C18.1848 0.5 0.5 18.1848 0.5 40C0.5 61.8152 18.1848 79.5 40 79.5Z" stroke="#002C15" stroke-miterlimit="10"/>
<path d="M53.1293 28.4399L40.1539 25.3505C40.0526 25.3259 39.9466 25.3259 39.8453 25.3505L26.8706 28.4399C25.9653 28.6552 25.3333 29.4559 25.3333 30.3859V31.3325C25.3333 32.4352 26.2306 33.3325 27.3333 33.3325H28.6666V49.3325H27.3333C26.2306 49.3325 25.3333 50.2299 25.3333 51.3325V52.6659C25.3333 53.7685 26.2306 54.6659 27.3333 54.6659H52.6666C53.7693 54.6659 54.6666 53.7685 54.6666 52.6659V51.3325C54.6666 50.2299 53.7693 49.3325 52.6666 49.3325H51.3333V33.3325H52.6666C53.7693 33.3325 54.6666 32.4352 54.6666 31.3325V30.3859C54.6666 29.4559 54.0346 28.6552 53.1293 28.4399ZM29.9999 33.3325H32.6666V49.3325H29.9999V33.3325ZM45.9999 33.3325V49.3325H33.9999V33.3325H45.9999ZM53.3333 51.3325V52.6659C53.3333 53.0339 53.0346 53.3325 52.6666 53.3325H27.3333C26.9653 53.3325 26.6666 53.0339 26.6666 52.6659V51.3325C26.6666 50.9645 26.9653 50.6659 27.3333 50.6659H52.6666C53.0346 50.6659 53.3333 50.9645 53.3333 51.3325ZM49.9999 49.3325H47.3333V33.3325H49.9999V49.3325ZM53.3333 31.3325C53.3333 31.7005 53.0346 31.9992 52.6666 31.9992C52.6666 31.9992 31.4026 31.9992 27.3333 31.9992C26.9653 31.9992 26.6666 31.7005 26.6666 31.3325C26.7039 30.8232 26.4679 29.8892 27.1793 29.7365L39.9999 26.6845L52.8206 29.7365C53.5286 29.8885 53.2986 30.8219 53.3333 31.3325Z" fill="#080808"/>
<path d="M36.7921 41.3395C36.6496 41.3395 36.5294 41.295 36.4315 41.206C36.3335 41.108 36.2846 40.9878 36.2846 40.8454C36.2846 40.7118 36.3335 40.6005 36.4315 40.5115C36.5294 40.4225 36.6496 40.378 36.7921 40.378H41.3327C41.4752 40.378 41.5953 40.4269 41.6933 40.5249C41.7912 40.6228 41.8402 40.7385 41.8402 40.8721C41.8402 41.0145 41.7912 41.1303 41.6933 41.2193C41.5953 41.2994 41.4752 41.3395 41.3327 41.3395H36.7921ZM38.7953 44.4111C39.1603 44.4111 39.5298 44.4601 39.9037 44.558C40.2866 44.656 40.6561 44.7583 41.0122 44.8652C41.3772 44.9631 41.7155 45.0121 42.0272 45.0121C42.2408 45.0121 42.4367 44.9809 42.6148 44.9186C42.7928 44.8563 42.9442 44.7851 43.0688 44.7049C43.1401 44.6426 43.2113 44.6025 43.2825 44.5847C43.3537 44.558 43.4161 44.5447 43.4695 44.5447C43.6297 44.5447 43.7455 44.5981 43.8167 44.7049C43.8879 44.8029 43.9235 44.9097 43.9235 45.0254C43.9235 45.1857 43.8701 45.3193 43.7633 45.4261C43.6564 45.5329 43.5051 45.622 43.3092 45.6932C43.1133 45.8 42.8952 45.8757 42.6548 45.9202C42.4233 45.9736 42.2141 46.0003 42.0272 46.0003C41.7779 45.9914 41.5019 45.9558 41.1992 45.8935C40.9053 45.8312 40.6071 45.76 40.3044 45.6798C40.0017 45.5997 39.7079 45.5329 39.423 45.4795C39.1381 45.4172 38.8843 45.386 38.6617 45.386C38.4837 45.3771 38.2967 45.3905 38.1008 45.4261C37.9139 45.4617 37.7447 45.4973 37.5933 45.5329C37.442 45.5685 37.3263 45.5997 37.2461 45.6264C37.1037 45.6531 36.9835 45.6932 36.8855 45.7466C36.7876 45.8089 36.6897 45.8401 36.5917 45.8401C36.476 45.8401 36.3781 45.7956 36.2979 45.7065C36.2178 45.6175 36.1777 45.5107 36.1777 45.386C36.1777 45.2614 36.2178 45.1501 36.2979 45.0522C36.3781 44.9453 36.4938 44.8652 36.6452 44.8118C36.9033 44.7316 37.1482 44.6649 37.3797 44.6114C37.6201 44.5491 37.856 44.5002 38.0875 44.4645C38.3279 44.4289 38.5638 44.4111 38.7953 44.4111ZM38.1008 45.1723L37.2995 44.9186C37.4153 44.8563 37.5266 44.745 37.6334 44.5847C37.7492 44.4245 37.8471 44.2242 37.9272 43.9838C38.0073 43.7434 38.0474 43.4718 38.0474 43.1691C38.0474 42.8308 38.0073 42.5014 37.9272 42.1809C37.856 41.8603 37.767 41.5443 37.6601 41.2327C37.5622 40.9211 37.4732 40.6005 37.393 40.2711C37.3218 39.9417 37.2862 39.6034 37.2862 39.2562C37.2862 38.6507 37.4064 38.121 37.6468 37.6669C37.8872 37.2129 38.2299 36.8612 38.6751 36.6119C39.1202 36.3537 39.6455 36.2246 40.251 36.2246C40.6872 36.2246 41.1057 36.2914 41.5063 36.4249C41.907 36.5585 42.2408 36.7499 42.5079 36.9992C42.6415 37.0971 42.7483 37.1995 42.8284 37.3064C42.9086 37.4132 42.9486 37.5156 42.9486 37.6135C42.9486 37.756 42.8908 37.8851 42.775 38.0008C42.6682 38.1076 42.5391 38.1611 42.3877 38.1611C42.3165 38.1611 42.2453 38.1477 42.1741 38.121C42.1117 38.0943 42.0583 38.0587 42.0138 38.0142C41.809 37.7738 41.5553 37.5868 41.2526 37.4533C40.9588 37.3197 40.6293 37.2529 40.2643 37.2529C39.8726 37.2529 39.5342 37.342 39.2493 37.52C38.9733 37.6981 38.7597 37.9385 38.6083 38.2412C38.4659 38.5439 38.3946 38.8867 38.3946 39.2695C38.3946 39.59 38.4302 39.915 38.5015 40.2444C38.5816 40.5649 38.6706 40.881 38.7686 41.1926C38.8754 41.5042 38.9644 41.8114 39.0357 42.1141C39.1158 42.4079 39.1559 42.6883 39.1559 42.9554C39.1559 43.2938 39.1024 43.6054 38.9956 43.8903C38.8977 44.1663 38.7641 44.4111 38.595 44.6248C38.4347 44.8385 38.27 45.021 38.1008 45.1723Z" fill="#080808"/>
</g>
<defs>
<clipPath id="clip0_970_3772">
<rect width="80" height="80" fill="white"/>
</clipPath>
</defs>
</svg>
