<svg width="80" height="80" viewBox="0 0 80 80" fill="none" xmlns="http://www.w3.org/2000/svg">
<g clip-path="url(#clip0_970_3762)">
<path d="M40 79.5C61.8152 79.5 79.5 61.8152 79.5 40C79.5 18.1848 61.8152 0.5 40 0.5C18.1848 0.5 0.5 18.1848 0.5 40C0.5 61.8152 18.1848 79.5 40 79.5Z" fill="#C3F53C"/>
<path d="M80 39.8008V40.0008C80 62.1008 62.1 80.0008 40 80.0008C22.8 80.0008 8.1 69.1008 2.5 53.8008C11.5 60.0008 22.4 63.6008 34.2 63.6008C53.1 63.6008 69.9 54.2008 80 39.8008Z" fill="#63DE1F"/>
<path d="M40 79.5C61.8152 79.5 79.5 61.8152 79.5 40C79.5 18.1848 61.8152 0.5 40 0.5C18.1848 0.5 0.5 18.1848 0.5 40C0.5 61.8152 18.1848 79.5 40 79.5Z" stroke="#080808" stroke-miterlimit="10"/>
<path d="M35.2994 55.238C34.8631 55.2369 34.4432 55.071 34.124 54.7736L24.3041 45.7601C24.2082 45.672 24.1317 45.5649 24.0794 45.4457C24.027 45.3264 24 45.1977 24 45.0675C24 44.9373 24.027 44.8085 24.0794 44.6892C24.1317 44.57 24.2082 44.463 24.3041 44.3748L34.124 35.3605C34.3742 35.1309 34.6859 34.9791 35.021 34.9237C35.356 34.8682 35.7 34.9114 36.0109 35.0481C36.3218 35.1848 36.5862 35.409 36.7718 35.6934C36.9574 35.9778 37.0563 36.3101 37.0563 36.6497V39.6775H43.3108C43.56 39.6775 43.7991 39.7765 43.9753 39.9528C44.1516 40.129 44.2506 40.3681 44.2506 40.6173V44.2879L53.0976 36.1672L44.2506 28.0464V31.7164C44.2506 31.9657 44.1516 32.2047 43.9753 32.381C43.7991 32.5572 43.56 32.6563 43.3108 32.6563H29.3263C29.0771 32.6563 28.838 32.5572 28.6618 32.381C28.4855 32.2047 28.3865 31.9657 28.3865 31.7164C28.3865 31.4672 28.4855 31.2281 28.6618 31.0519C28.838 30.8756 29.0771 30.7766 29.3263 30.7766H42.3708V27.7491C42.3707 27.4095 42.4696 27.0772 42.6553 26.7928C42.8409 26.5084 43.1054 26.2843 43.4163 26.1477C43.7273 26.0111 44.0713 25.968 44.4063 26.0236C44.7414 26.0793 45.0529 26.2313 45.303 26.4611L55.1228 35.4746C55.2186 35.5627 55.2951 35.6698 55.3475 35.789C55.3998 35.9082 55.4268 36.037 55.4268 36.1672C55.4268 36.2974 55.3998 36.4262 55.3475 36.5454C55.2951 36.6646 55.2186 36.7717 55.1228 36.8598L45.3028 45.8741C45.0526 46.1037 44.7409 46.2555 44.4059 46.311C44.0708 46.3664 43.7268 46.3232 43.416 46.1865C43.1051 46.0498 42.8407 45.8256 42.655 45.5412C42.4694 45.2568 42.3706 44.9245 42.3706 44.5849V41.5572H36.1162C35.867 41.5572 35.6279 41.4581 35.4517 41.2819C35.2754 41.1056 35.1764 40.8666 35.1764 40.6173V36.9467L26.3295 45.0674L35.1764 53.1882V49.5182C35.1764 49.269 35.2754 49.0299 35.4517 48.8537C35.6279 48.6774 35.867 48.5784 36.1162 48.5784H48.4381C48.6873 48.5784 48.9264 48.6774 49.1026 48.8537C49.2789 49.0299 49.3779 49.269 49.3779 49.5182C49.3779 49.7675 49.2789 50.0065 49.1026 50.1828C48.9264 50.359 48.6873 50.458 48.4381 50.458H37.0561V53.4856C37.0588 53.8258 36.961 54.1592 36.775 54.4441C36.589 54.729 36.323 54.9526 36.0104 55.0868C35.7864 55.186 35.5443 55.2375 35.2994 55.238Z" fill="#080808"/>
</g>
<defs>
<clipPath id="clip0_970_3762">
<rect width="80" height="80" fill="white"/>
</clipPath>
</defs>
</svg>
