<svg width="40" height="40" viewBox="0 0 40 40" fill="none" xmlns="http://www.w3.org/2000/svg">
<rect width="40" height="40" rx="12" fill="#C3F53C"/>
<path d="M20 9C13.9233 9 9 13.9233 9 20V31H20C26.0767 31 31 26.0767 31 20V9H20ZM11.1991 26.6017V19.7934C11.1991 15.0466 15.0466 11.1991 19.7934 11.1991H26.6017H27.2473L25.0481 13.3983H17.8009V15.5974H22.8447L18.4464 20H13.3983V22.1991H16.243L11.1991 27.2473V26.6017ZM28.8009 13.3983V20.2066C28.8009 24.9534 24.9534 28.8009 20.2066 28.8009H13.3983H12.7527L17.7966 23.757V26.6017H19.9957V21.5579L24.394 17.1596V22.2034H26.6017V14.9562L28.8009 12.757V13.3983Z" fill="#080808"/>
</svg>
